<svg width="325" height="142" viewBox="0 0 325 142" fill="none" xmlns="http://www.w3.org/2000/svg">
<path d="M200.754 52.0985C196.93 55.1256 192.598 56.733 187.762 57.0335C178.547 57.6062 171.02 52.2619 169.476 43.9328C168.715 39.8268 169.767 36.0252 171.549 32.3306C177.152 20.7163 197.151 13.1273 207.657 15.9447C208.064 16.0536 208.477 16.1424 208.878 16.2734C213.081 17.6367 213.641 18.4071 213.291 22.8217C212.821 28.7691 211.575 34.6196 211.101 40.573C210.378 49.6644 210.097 58.7981 208.663 67.827C207.115 77.5859 204.329 86.871 197.76 94.5789C191.559 101.853 183.899 106.609 174.182 107.641C167.297 108.373 161.115 106.336 155.248 102.968C151.327 100.716 147.839 97.8581 144.201 95.2101C142.264 93.8004 140.272 92.4492 137.897 91.8805C135.735 91.3622 134.679 92.0358 134.134 94.113C133.367 97.0373 132.15 98.0517 129.697 97.8238C127.071 97.5797 124.861 95.3896 124.856 92.8384C124.85 89.5733 126.468 87.0545 128.972 85.1325C132.614 82.3394 136.699 81.6012 141.145 82.8637C143.964 83.6643 146.459 85.072 148.821 86.76C151.683 88.803 154.552 90.8419 157.437 92.8526C172.148 103.104 184.349 97.4144 192.562 85.7839C197.347 79.0077 199.027 71.0739 200.119 63.0251C200.598 59.4878 200.872 55.9202 201.238 52.3668C201.076 52.278 200.914 52.1893 200.752 52.1006L200.754 52.0985ZM187.049 47.69C190.896 47.446 194.386 45.5986 197.056 42.2226C200.833 37.443 202.145 31.6913 203.467 25.9436C203.742 24.7517 203.1 24.7175 202.208 24.7336C198.906 24.7901 195.841 25.8145 192.839 27.0286C187.695 29.1099 182.837 31.6227 179.986 36.719C178.678 39.0584 177.822 41.5349 179.381 44.08C180.998 46.7219 183.567 47.6718 187.049 47.688V47.69Z" fill="#C32749"/>
<path d="M103.615 31.9455C101.011 27.1275 96.9889 25.2278 91.8349 26.2684C90.6 26.5185 89.3794 26.9017 88.2012 27.3474C84.8023 28.634 82.4297 27.779 81.3568 24.8043C80.13 21.4021 81.5713 18.381 84.7536 17.1145C94.254 13.3372 106.71 15.5011 113.496 26.4882C117.275 32.609 117.32 39.1049 116.35 45.7923C114.573 58.0439 107.854 66.8409 96.8573 72.3143C90.3186 75.5693 83.458 75.3293 76.7736 72.6309C66.4938 68.4825 63.7589 57.0457 70.8604 48.3132C74.482 43.8603 79.4781 41.414 84.5896 39.1593C90.768 36.4347 97.0841 34.0691 103.615 31.9435V31.9455ZM87.5777 65.8668C89.7093 65.9233 91.598 65.169 93.3572 64.0921C100.643 59.6271 105.153 53.1998 106.876 44.8566C107.487 41.9001 106.779 41.0047 103.787 41.3435C97.242 42.0876 90.9159 43.6909 85.0796 46.843C83.0269 47.9522 81.1948 49.3881 79.8992 51.3908C77.9355 54.4259 77.7575 57.5962 79.4114 60.7746C81.1058 64.0336 83.9054 65.6893 87.5796 65.8648L87.5777 65.8668Z" fill="#C32749"/>
<path d="M43.3918 72.4414C36.9057 72.3123 32.1241 69.0331 28.0835 64.2958C24.3829 59.9598 22.5711 54.7204 20.7876 49.4688C18.9819 44.1567 17.2693 38.8144 15.5142 33.4862C15.4271 33.22 15.3259 32.9579 15.2227 32.6977C13.1558 27.4966 11.8642 27.1578 7.59888 30.7032C5.26883 32.6413 2.85782 33.0406 1.28893 31.7479C-0.298179 30.441 -0.443981 27.0105 0.98725 24.7175C4.85987 18.5181 14.7833 18.0321 19.8645 23.8443C22.893 27.309 24.549 31.4978 25.6948 35.866C27.1381 41.3676 28.6422 46.839 31.035 52.022C32.3023 54.7708 33.7254 57.4328 35.847 59.6472C40.7743 64.7919 48.4689 63.6323 51.7039 57.1908C54.4287 51.7679 55.8538 45.877 57.6009 40.1112C60.2912 31.2396 63.0363 22.3963 68.0628 14.4725C71.9253 8.38001 76.9013 3.57621 83.8145 1.04925C86.6466 0.0146724 89.5536 -0.308025 92.5415 0.321193C94.6003 0.754789 95.7319 2.03138 95.993 4.05415C96.3109 6.51658 94.4829 8.39416 91.9079 7.69637C85.764 6.03056 81.9257 9.35816 78.5309 13.5005C74.9356 17.8849 72.4476 22.9347 70.7957 28.3537C68.0143 37.4774 65.4169 46.6575 62.5322 55.7469C60.107 63.3842 55.2769 68.9605 47.5377 71.7436C46.1956 72.2256 44.8231 72.4756 43.3898 72.4373L43.3918 72.4414Z" fill="#C32749"/>
<path d="M170.182 73.5202C165.057 73.6311 161.35 71.3442 158.435 67.5911C154.744 62.8397 152.835 57.2594 151.09 51.6166C149.206 45.52 147.4 39.4013 145.491 33.3128C144.724 30.8645 144.001 30.691 141.878 32.2137C140.183 33.4298 139.005 35.0693 137.999 36.8682C133.495 44.9311 131.088 53.7059 129.134 62.636C128.685 64.691 128.258 66.7521 127.873 68.8193C127.183 72.528 125.239 74.1858 122.075 73.7038C118.601 73.1774 116.379 70.1826 117 66.7017C117.974 61.2465 119.172 55.8356 120.709 50.5074C122.814 43.2068 125.249 36.0394 129.849 29.8299C132.217 26.6334 134.962 23.8382 138.594 22.0594C145.467 18.6935 151.7 20.7587 154.949 27.6619C158.064 34.2848 159.732 41.4301 162.081 48.3293C163.739 53.2017 165.682 57.9148 168.5 62.2366C170.518 65.3323 171.773 65.6812 175.209 64.1969C175.855 63.9186 176.462 63.5495 177.116 63.2954C177.731 63.0554 178.292 62.2225 178.976 62.6944C179.715 63.2047 179.409 64.1021 179.241 64.8443C178.592 67.7262 177.292 70.239 174.97 72.1569C173.51 73.3629 171.737 73.4214 170.178 73.5162L170.182 73.5202Z" fill="#C32749"/>
<path d="M260.394 41.2203C259.967 50.0556 255.884 56.5172 247.999 60.1977C239.778 64.0336 231.695 63.1926 224.512 57.6163C217.684 52.3164 215.135 45.1308 216.876 36.6525C218.192 30.2473 221.484 24.9192 226.63 20.8212C233.644 15.2348 242.067 14.9444 249.276 20.2585C256.327 25.4576 259.914 32.5988 260.394 41.2203ZM249.311 40.2644C249.116 36.2632 247.762 32.732 244.875 29.8964C240.918 26.0102 236.369 26.0485 232.411 29.9489C230.083 32.2439 228.727 35.0653 228.243 38.2618C227.563 42.7652 228.875 46.6191 232.549 49.4324C235.865 51.9715 239.575 52.2922 243.268 50.4045C247.331 48.3273 249.116 44.7375 249.311 40.2644Z" fill="#C32749"/>
<path d="M101.957 2.352C104.03 2.31772 105.7 3.85443 105.708 5.80057C105.714 7.56118 104.167 9.16852 102.392 9.24718C100.441 9.33188 97.9202 7.17802 97.8048 5.32264C97.7036 3.70119 99.5336 2.39234 101.957 2.352Z" fill="#C32749"/>
<path d="M215.899 67.6878C216.793 67.7584 217.536 68.1396 218.125 68.8333C218.714 69.5271 218.974 70.3197 218.903 71.2111C218.832 72.1045 218.449 72.8426 217.753 73.4295C217.057 74.0163 216.261 74.2745 215.366 74.2039C212.631 73.9921 209.485 73.982 205.927 74.1696C205.501 78.2333 205.291 82.2244 205.291 86.1449C205.291 90.5837 205.467 95.1617 205.821 99.8828C206.176 104.602 206.645 108.583 207.236 111.824C207.4 112.715 207.224 113.532 206.706 114.272C206.188 115.012 205.491 115.464 204.621 115.627C204.479 115.652 204.279 115.662 204.02 115.662C203.242 115.662 202.546 115.41 201.934 114.905C201.321 114.401 200.945 113.76 200.803 112.985C200.143 109.275 199.637 104.925 199.282 99.9353C198.928 94.9459 198.752 90.3498 198.752 86.1449C198.752 82.2002 198.928 78.3966 199.282 74.7323C195.77 75.1558 192.918 75.66 190.725 76.2468C190.442 76.3174 190.161 76.3517 189.877 76.3517C189.146 76.3517 188.481 76.1278 187.879 75.6821C187.278 75.2364 186.883 74.6496 186.695 73.9215C186.458 73.0301 186.571 72.2013 187.031 71.439C187.491 70.6767 188.157 70.1765 189.029 69.9425C192.683 68.9564 197.078 68.2646 202.218 67.8653C202.619 67.7947 202.973 67.7726 203.279 67.7947C208.111 67.4418 212.317 67.4075 215.901 67.6899L215.899 67.6878Z" stroke="#EBEFF8" stroke-width="17" stroke-miterlimit="10"/>
<path d="M236.193 82.2346C239.092 84.9107 240.541 88.5046 240.541 93.014C240.541 95.9019 239.958 98.7193 238.79 101.468C237.624 104.215 235.944 106.506 233.752 108.337C231.559 110.168 229.142 111.084 226.504 111.084C224.996 111.084 223.541 110.737 222.138 110.045C220.735 109.353 219.468 108.361 218.336 107.069C217.204 105.778 216.298 104.104 215.613 102.049C214.929 99.9938 214.587 97.7109 214.587 95.1981C214.587 91.8644 215.247 88.6417 216.567 85.5299C217.887 82.4181 219.703 80.3106 222.012 79.2075C222.836 78.784 223.721 78.7618 224.664 79.1369C225.019 78.9735 225.419 78.8666 225.867 78.8203C229.992 78.5379 233.434 79.6773 236.191 82.2366L236.193 82.2346ZM226.504 104.566C228.438 104.566 230.169 103.315 231.701 100.815C233.233 98.3139 233.999 95.7144 233.999 93.012C233.999 90.4527 233.244 88.4562 231.735 87.0243C230.391 85.7558 228.59 85.1931 226.326 85.3343C225.832 85.3827 225.348 85.3121 224.877 85.1225C224.051 85.5218 223.227 86.7198 222.401 88.7163C221.575 90.7129 221.164 92.8728 221.164 95.1981C221.164 98.0638 221.707 100.341 222.79 102.031C223.873 103.721 225.112 104.568 226.502 104.568L226.504 104.566Z" stroke="#EBEFF8" stroke-width="17" stroke-miterlimit="10"/>
<path d="M268.298 107.948C268.486 108.841 268.322 109.668 267.802 110.43C267.283 111.195 266.587 111.658 265.717 111.822C264.844 111.987 264.03 111.822 263.277 111.33C262.522 110.836 262.05 110.144 261.862 109.25C261.178 105.963 260.635 102.311 260.236 98.2956C259.34 100.738 258.645 102.535 258.151 103.684C256.69 107.23 255.376 109.773 254.21 111.31C253.044 112.846 251.682 113.617 250.127 113.617C248.689 113.617 247.428 113.018 246.343 111.82C245.258 110.622 244.416 109.002 243.815 106.959C243.214 104.917 242.766 102.71 242.471 100.337C242.175 97.9649 242.029 95.4521 242.029 92.798C242.029 90.144 242.183 87.3024 242.489 84.2027C242.582 83.3113 242.979 82.5712 243.673 81.9843C244.367 81.3975 245.163 81.1514 246.06 81.2442C246.955 81.339 247.698 81.7363 248.287 82.4421C248.876 83.146 249.123 83.9446 249.03 84.838C248.746 87.8672 248.604 90.5212 248.604 92.798C248.604 97.9871 249.135 102.168 250.196 105.338C250.951 103.858 251.809 101.885 252.777 99.421C254.427 95.1939 256.641 89.053 259.425 80.9982C259.755 80.0584 260.291 79.3848 261.034 78.9734C261.777 78.562 262.524 78.4268 263.279 78.568C264.034 78.7092 264.698 79.0964 265.277 79.7297C265.854 80.3629 266.144 81.1857 266.144 82.1961C266.073 92.0115 266.791 100.595 268.3 107.946L268.298 107.948Z" stroke="#EBEFF8" stroke-width="17" stroke-miterlimit="10"/>
<path d="M287.709 78.1143C289.525 78.1143 291.027 78.8302 292.218 80.2621C293.408 81.694 294.003 83.503 294.003 85.6871C294.003 86.7196 293.849 87.6251 293.544 88.3996C293.214 89.2224 292.618 89.8093 291.758 90.1602C290.898 90.5131 290.056 90.5252 289.23 90.1945C288.404 89.8658 287.815 89.291 287.462 88.4682C287.108 87.6473 287.096 86.8245 287.428 86.0017V85.6851C287.428 85.31 287.394 85.0155 287.323 84.8038C285.837 85.7436 284.341 88.1495 282.833 92.0236C280.594 97.7531 279.225 104.33 278.731 111.749C278.685 112.711 278.371 113.516 277.794 114.161C277.217 114.807 276.49 115.178 275.62 115.27H275.266C274.535 115.27 273.857 115.047 273.233 114.601C272.608 114.155 272.154 113.449 271.873 112.487C270.858 109.035 270.081 104.604 269.539 99.1911C268.996 93.7782 268.913 88.4298 269.292 83.146C269.362 82.2546 269.739 81.5084 270.423 80.9095C271.108 80.3105 271.897 80.0463 272.792 80.1169C273.686 80.1874 274.442 80.5626 275.055 81.2442C275.668 81.9259 275.94 82.7124 275.869 83.6038C275.656 86.4212 275.61 89.3696 275.727 92.4451C276.057 91.4126 276.387 90.4728 276.717 89.6278C279.733 81.9481 283.399 78.1102 287.713 78.1102L287.709 78.1143Z" stroke="#EBEFF8" stroke-width="17" stroke-miterlimit="10"/>
<path d="M307.793 98.1909C308.712 98.4954 309.437 98.7434 309.967 98.931C310.498 99.1185 311.188 99.4311 312.036 99.8647C312.884 100.3 313.544 100.746 314.016 101.204C314.488 101.662 314.905 102.267 315.271 103.019C315.635 103.771 315.82 104.592 315.82 105.485C315.82 108.514 314.275 110.886 311.188 112.6C309.089 113.798 306.072 114.702 302.137 115.313C301.9 115.359 301.736 115.383 301.641 115.383C300.839 115.383 300.127 115.119 299.501 114.591C298.876 114.062 298.505 113.399 298.388 112.6C298.246 111.709 298.447 110.898 298.989 110.17C299.532 109.442 300.25 109.009 301.145 108.867C303.738 108.444 305.676 107.952 306.961 107.387C308.244 106.824 308.993 106.284 309.206 105.768C308.829 105.51 307.674 105.052 305.74 104.394C302.771 103.408 300.683 102.505 299.481 101.682C296.817 99.8506 295.485 97.3963 295.485 94.3208C295.485 92.3948 296.021 90.3458 297.094 88.1738C298.167 86.0018 299.687 84.0052 301.655 82.1861C303.623 80.367 305.763 79.1167 308.072 78.435C309.368 78.0599 310.512 78.2353 311.502 78.9634C312.516 79.7156 313.022 80.7603 313.022 82.0974C313.022 82.9908 312.698 83.7591 312.05 84.4045C311.403 85.0498 310.629 85.3725 309.734 85.3725C309.38 85.3725 309.028 85.3141 308.674 85.1971C306.882 86.0905 305.333 87.4921 304.024 89.406C302.716 91.3199 302.062 92.9575 302.062 94.3187C302.062 95.1416 302.463 95.8111 303.265 96.3274C304.066 96.8437 305.574 97.4669 307.791 98.1949L307.793 98.1909Z" stroke="#EBEFF8" stroke-width="17" stroke-miterlimit="10"/>
<path d="M216.166 67.6878C217.06 67.7584 217.803 68.1396 218.393 68.8333C218.982 69.5271 219.241 70.3197 219.17 71.2111C219.099 72.1045 218.716 72.8426 218.02 73.4295C217.324 74.0163 216.528 74.2745 215.633 74.2039C212.898 73.9921 209.752 73.982 206.194 74.1696C205.768 78.2333 205.558 82.2244 205.558 86.1449C205.558 90.5837 205.734 95.1617 206.088 99.8828C206.443 104.602 206.912 108.583 207.503 111.824C207.667 112.715 207.491 113.532 206.973 114.272C206.455 115.012 205.758 115.464 204.888 115.627C204.746 115.652 204.546 115.662 204.287 115.662C203.509 115.662 202.813 115.41 202.202 114.905C201.588 114.401 201.212 113.76 201.07 112.986C200.41 109.275 199.904 104.925 199.55 99.9353C199.195 94.9459 199.019 90.3498 199.019 86.1449C199.019 82.2002 199.195 78.3966 199.55 74.7323C196.037 75.1558 193.185 75.66 190.993 76.2468C190.709 76.3174 190.428 76.3517 190.144 76.3517C189.414 76.3517 188.748 76.1278 188.146 75.6821C187.545 75.2364 187.15 74.6496 186.962 73.9215C186.725 73.0301 186.839 72.2013 187.298 71.439C187.758 70.6767 188.424 70.1765 189.296 69.9425C192.95 68.9564 197.345 68.2646 202.485 67.8653C202.886 67.7947 203.24 67.7726 203.546 67.7947C208.378 67.4418 212.585 67.4075 216.168 67.6899L216.166 67.6878Z" fill="#232D55"/>
<path d="M236.462 82.2346C239.361 84.9107 240.81 88.5046 240.81 93.014C240.81 95.9019 240.227 98.7193 239.059 101.468C237.893 104.215 236.213 106.506 234.021 108.337C231.828 110.168 229.411 111.084 226.773 111.084C225.265 111.084 223.81 110.737 222.407 110.045C221.004 109.353 219.737 108.361 218.605 107.069C217.473 105.778 216.567 104.104 215.882 102.049C215.198 99.9938 214.856 97.7109 214.856 95.1981C214.856 91.8644 215.516 88.6417 216.836 85.5299C218.156 82.4181 219.972 80.3106 222.281 79.2075C223.105 78.784 223.99 78.7618 224.933 79.1369C225.287 78.9735 225.688 78.8666 226.136 78.8203C230.261 78.5379 233.703 79.6773 236.46 82.2366L236.462 82.2346ZM226.773 104.566C228.707 104.566 230.438 103.315 231.97 100.815C233.502 98.3139 234.268 95.7144 234.268 93.012C234.268 90.4527 233.513 88.4562 232.004 87.0243C230.66 85.7558 228.859 85.1931 226.595 85.3343C226.101 85.3827 225.618 85.3121 225.146 85.1225C224.32 85.5218 223.496 86.7198 222.67 88.7163C221.844 90.7129 221.433 92.8728 221.433 95.1981C221.433 98.0638 221.976 100.341 223.059 102.031C224.142 103.721 225.381 104.568 226.771 104.568L226.773 104.566Z" fill="#232D55"/>
<path d="M268.567 107.948C268.755 108.841 268.591 109.668 268.071 110.43C267.552 111.195 266.856 111.658 265.985 111.822C265.113 111.987 264.299 111.822 263.546 111.33C262.791 110.836 262.319 110.144 262.131 109.25C261.447 105.963 260.904 102.311 260.506 98.2956C259.609 100.738 258.914 102.535 258.42 103.684C256.959 107.23 255.645 109.773 254.479 111.31C253.313 112.846 251.951 113.617 250.396 113.617C248.959 113.617 247.697 113.018 246.612 111.82C245.527 110.622 244.685 109.002 244.084 106.959C243.483 104.917 243.035 102.71 242.74 100.337C242.444 97.9649 242.298 95.4521 242.298 92.798C242.298 90.144 242.452 87.3024 242.758 84.2027C242.851 83.3113 243.248 82.5712 243.942 81.9843C244.637 81.3975 245.432 81.1514 246.329 81.2442C247.224 81.339 247.967 81.7363 248.556 82.4421C249.145 83.146 249.392 83.9446 249.299 84.838C249.015 87.8672 248.873 90.5212 248.873 92.798C248.873 97.9871 249.404 102.168 250.465 105.338C251.22 103.858 252.078 101.885 253.046 99.421C254.696 95.1939 256.91 89.053 259.694 80.9982C260.024 80.0584 260.56 79.3848 261.303 78.9734C262.046 78.562 262.793 78.4268 263.548 78.568C264.303 78.7092 264.967 79.0964 265.546 79.7297C266.123 80.3629 266.413 81.1857 266.413 82.1961C266.342 92.0115 267.06 100.595 268.569 107.946L268.567 107.948Z" fill="#232D55"/>
<path d="M287.979 78.1143C289.795 78.1143 291.297 78.8302 292.487 80.2621C293.677 81.694 294.273 83.503 294.273 85.6871C294.273 86.7196 294.119 87.6251 293.813 88.3996C293.483 89.2224 292.888 89.8093 292.028 90.1602C291.167 90.5131 290.325 90.5252 289.499 90.1945C288.673 89.8658 288.084 89.291 287.732 88.4682C287.378 87.6473 287.365 86.8245 287.697 86.0017V85.6851C287.697 85.31 287.663 85.0155 287.592 84.8038C286.106 85.7436 284.61 88.1495 283.102 92.0236C280.863 97.7531 279.495 104.33 279.001 111.749C278.954 112.711 278.64 113.516 278.063 114.161C277.487 114.807 276.76 115.178 275.889 115.27H275.535C274.804 115.27 274.126 115.047 273.503 114.601C272.877 114.155 272.424 113.449 272.142 112.487C271.128 109.035 270.351 104.604 269.808 99.1911C269.266 93.7782 269.183 88.4298 269.561 83.146C269.632 82.2546 270.008 81.5084 270.693 80.9095C271.377 80.3105 272.166 80.0463 273.061 80.1169C273.956 80.1874 274.711 80.5626 275.325 81.2442C275.938 81.9259 276.209 82.7124 276.138 83.6038C275.926 86.4212 275.879 89.3696 275.997 92.4451C276.327 91.4126 276.657 90.4728 276.987 89.6278C280.003 81.9481 283.669 78.1102 287.983 78.1102L287.979 78.1143Z" fill="#232D55"/>
<path d="M308.062 98.1909C308.981 98.4954 309.706 98.7434 310.236 98.931C310.767 99.1185 311.457 99.4311 312.305 99.8647C313.153 100.3 313.813 100.746 314.285 101.204C314.757 101.662 315.174 102.267 315.54 103.019C315.904 103.771 316.089 104.592 316.089 105.485C316.089 108.514 314.544 110.886 311.457 112.6C309.358 113.798 306.341 114.702 302.406 115.313C302.169 115.359 302.005 115.383 301.91 115.383C301.108 115.383 300.396 115.119 299.77 114.591C299.145 114.062 298.774 113.399 298.657 112.6C298.515 111.709 298.716 110.898 299.258 110.17C299.801 109.442 300.519 109.009 301.414 108.867C304.007 108.444 305.945 107.952 307.23 107.387C308.514 106.824 309.262 106.284 309.475 105.768C309.099 105.51 307.943 105.052 306.009 104.394C303.04 103.408 300.952 102.505 299.75 101.682C297.086 99.8506 295.754 97.3963 295.754 94.3208C295.754 92.3948 296.29 90.3458 297.363 88.1738C298.436 86.0018 299.956 84.0052 301.924 82.1861C303.892 80.367 306.032 79.1167 308.341 78.435C309.637 78.0599 310.781 78.2353 311.771 78.9634C312.785 79.7156 313.291 80.7603 313.291 82.0974C313.291 82.9908 312.967 83.7591 312.319 84.4045C311.672 85.0498 310.898 85.3725 310.003 85.3725C309.649 85.3725 309.297 85.3141 308.943 85.1971C307.151 86.0905 305.602 87.4921 304.293 89.406C302.985 91.3199 302.331 92.9575 302.331 94.3187C302.331 95.1416 302.732 95.8111 303.534 96.3274C304.335 96.8437 305.843 97.4669 308.06 98.1949L308.062 98.1909Z" fill="#232D55"/>
</svg>
