<svg width="350" height="196" viewBox="0 0 350 196" fill="none" xmlns="http://www.w3.org/2000/svg">
<path d="M248.219 151.885C247.632 151.885 247.313 151.471 247.259 151.018C245.706 156.233 243.528 161.232 240.289 165.837C229.267 181.502 212.89 189.166 193.146 175.358C189.273 172.649 185.425 169.904 181.581 167.151C178.411 164.879 175.064 162.982 171.279 161.904C165.311 160.205 159.83 161.198 154.94 164.961C151.577 167.55 149.407 170.944 149.415 175.34C149.423 178.779 152.387 181.726 155.912 182.057C159.206 182.365 160.838 180.997 161.868 177.057C162.599 174.26 164.018 173.353 166.92 174.05C170.106 174.815 172.78 176.635 175.379 178.534C180.263 182.101 184.942 185.95 190.207 188.985C198.078 193.524 206.377 196.267 215.618 195.281C228.66 193.888 238.94 187.482 247.263 177.685C253.756 170.041 257.492 161.24 259.842 151.885H248.215H248.219Z" fill="#007767"/>
<path d="M252.005 77.419C258.496 77.0143 264.312 74.8483 269.442 70.7708C269.66 70.891 269.877 71.0112 270.095 71.1295C269.602 75.9162 269.236 80.719 268.592 85.4858C267.905 90.5691 267.045 95.6183 265.662 100.487C265.823 100.305 266.061 100.185 266.378 100.185H278.486C279.105 97.4797 279.62 94.7307 280.059 91.9536C281.983 79.7934 282.362 67.4888 283.33 55.2424C283.965 47.2237 285.638 39.3413 286.27 31.3326C286.739 25.3857 285.985 24.3478 280.346 22.5125C279.809 22.3382 279.254 22.218 278.709 22.0697C264.608 18.2747 237.768 28.4974 230.247 44.1421C227.854 49.1192 226.442 54.2406 227.464 59.7707C229.536 70.9912 239.638 78.1904 252.005 77.417V77.419ZM241.568 50.0569C245.394 43.1923 251.915 39.8062 258.819 37.005C262.847 35.37 266.959 33.9895 271.392 33.9133C272.59 33.8933 273.45 33.9374 273.083 35.5443C271.31 43.2865 269.55 51.0327 264.478 57.4725C260.897 62.0208 256.211 64.5074 251.049 64.836C246.376 64.8119 242.929 63.5336 240.756 59.9751C238.666 56.5468 239.812 53.2107 241.57 50.0589L241.568 50.0569Z" fill="#007767"/>
<path d="M139.066 43.0239C135.573 36.5341 130.174 33.9734 123.256 35.376C121.599 35.7126 119.962 36.2295 118.378 36.8306C113.817 38.5638 110.633 37.4117 109.194 33.4063C107.547 28.824 109.483 24.7525 113.753 23.0494C126.505 17.9601 143.222 20.8774 152.329 35.6765C157.403 43.9216 157.461 52.6716 156.158 61.6801C153.773 78.1843 144.755 90.032 129.998 97.4055C121.222 101.79 112.016 101.465 103.044 97.8323C89.246 92.2441 85.5746 76.8379 95.1077 65.0783C99.9675 59.0814 106.675 55.7833 113.535 52.7478C121.825 49.079 130.304 45.8912 139.068 43.03L139.066 43.0239ZM117.541 88.7156C120.403 88.7897 122.938 87.7759 125.296 86.3252C135.074 80.3102 141.128 71.6524 143.441 60.4138C144.26 56.4305 143.308 55.2243 139.294 55.6832C130.511 56.685 122.02 58.8449 114.188 63.0927C111.433 64.5875 108.974 66.521 107.236 69.2179C104.601 73.3054 104.362 77.5772 106.581 81.8591C108.855 86.2491 112.613 88.4772 117.543 88.7156H117.541Z" fill="#007767"/>
<path d="M58.2391 97.5718C49.5357 97.3975 43.1168 92.9814 37.6919 86.5997C32.7259 80.759 30.295 73.7021 27.9002 66.6292C25.4773 59.4741 23.1787 52.2789 20.822 45.1018C20.7037 44.7431 20.5695 44.3885 20.4313 44.0378C17.6577 37.031 15.9222 36.5762 10.1987 41.3529C7.07241 43.9617 3.83385 44.5007 1.72962 42.7595C-0.398653 40.9983 -0.597055 36.3798 1.32481 33.2902C6.52125 24.9409 19.84 24.2857 26.6597 32.116C30.7259 36.7825 32.9464 42.4249 34.4855 48.3096C36.4234 55.7192 38.4414 63.0907 41.6539 70.0714C43.3553 73.7722 45.2651 77.3608 48.1128 80.3443C54.7281 87.2729 65.0528 85.7101 69.3955 77.0362C73.0529 69.7308 74.9647 61.7983 77.3114 54.0301C80.9207 42.0802 84.6081 30.1684 91.3517 19.4949C96.5361 11.2879 103.213 4.81802 112.494 1.41379C116.294 0.0192366 120.198 -0.415538 124.208 0.434017C126.971 1.01909 128.488 2.73821 128.841 5.46319C129.27 8.77926 126.813 11.3099 123.358 10.3702C115.111 8.12607 109.959 12.6103 105.404 18.1865C100.58 24.0933 97.2395 30.8938 95.021 38.1931C91.2875 50.4816 87.8026 62.8482 83.9308 75.0907C80.6763 85.3775 74.1933 92.8892 63.8064 96.6401C62.0068 97.2893 60.163 97.6259 58.2391 97.5738V97.5718Z" fill="#007767"/>
<path d="M228.409 99.0245C221.53 99.1728 216.556 96.0931 212.642 91.0379C207.688 84.6382 205.127 77.1224 202.786 69.5205C200.257 61.3094 197.832 53.0664 195.271 44.8654C194.241 41.5673 193.271 41.3349 190.421 43.3846C188.147 45.0216 186.565 47.2317 185.217 49.6541C179.17 60.514 175.942 72.3356 173.319 84.3637C172.716 87.1307 172.142 89.9078 171.625 92.6929C170.697 97.6881 168.09 99.9201 163.844 99.2729C159.182 98.5636 156.198 94.5303 157.032 89.8417C158.341 82.4922 159.948 75.2049 162.01 68.0277C164.836 58.1958 168.104 48.5381 174.277 40.1748C177.455 35.8689 181.138 32.104 186.014 29.7076C195.239 25.1733 203.604 27.9544 207.964 37.2555C212.147 46.1758 214.385 55.8014 217.538 65.0944C219.764 71.6564 222.371 78.006 226.155 83.8287C228.864 87.9983 230.548 88.4692 235.161 86.4695C236.027 86.0928 236.844 85.5979 237.72 85.2553C238.546 84.9307 239.299 83.8106 240.217 84.4458C241.209 85.133 240.8 86.3413 240.574 87.3411C239.7 91.2222 237.959 94.6064 234.842 97.1911C232.884 98.8161 230.504 98.8942 228.409 99.0225V99.0245Z" fill="#007767"/>
<path d="M349.486 55.5188C348.913 67.4206 343.434 76.1245 332.851 81.0816C321.819 86.2491 310.969 85.117 301.328 77.6052C292.163 70.4662 288.742 60.7865 291.079 49.3676C292.845 40.7398 297.264 33.5626 304.169 28.0425C313.582 20.5187 324.889 20.126 334.564 27.2851C344.029 34.288 348.841 43.9076 349.486 55.5208V55.5188ZM334.611 54.2325C334.35 48.8426 332.532 44.0879 328.659 40.2669C323.346 35.0313 317.242 35.0854 311.929 40.337C308.803 43.4267 306.983 47.2297 306.336 51.5335C305.424 57.6006 307.183 62.7901 312.113 66.581C316.562 70.0013 321.544 70.4321 326.5 67.8915C331.953 65.0943 334.35 60.2575 334.611 54.2345V54.2325Z" fill="#007767"/>
<path d="M136.843 3.16103C139.625 3.11495 141.867 5.18472 141.877 7.80552C141.887 10.1779 139.811 12.3439 137.428 12.4481C134.809 12.5623 131.426 9.65892 131.272 7.16235C131.136 4.97635 133.591 3.21313 136.845 3.16103H136.843Z" fill="#007767"/>
<path d="M0.000488281 101.223H349.487" stroke="#007767" stroke-width="4" stroke-miterlimit="10"/>
<path d="M0.000488281 151.22H349.487" stroke="#007767" stroke-width="4" stroke-miterlimit="10"/>
<path d="M38.5661 128.152C39.7304 129.677 40.3136 131.552 40.3136 133.778C40.3136 136.93 39.0891 139.352 36.6382 141.049C34.1873 142.744 30.6162 143.592 25.9227 143.592H7.31934V107.624H24.8966C29.2814 107.624 32.6482 108.464 34.995 110.143C37.3417 111.822 38.516 114.1 38.516 116.977C38.516 118.724 38.0952 120.283 37.2575 121.654C36.4178 123.024 35.2454 124.104 33.7364 124.892C35.7925 125.543 37.4018 126.631 38.5681 128.154L38.5661 128.152ZM15.594 113.894V122.371H23.8686C25.9247 122.371 27.4838 122.012 28.546 121.293C29.6081 120.574 30.1392 119.512 30.1392 118.107C30.1392 116.703 29.6081 115.649 28.546 114.948C27.4838 114.246 25.9247 113.894 23.8686 113.894H15.594ZM30.2674 136.247C31.3796 135.527 31.9368 134.415 31.9368 132.906C31.9368 129.927 29.7263 128.436 25.3074 128.436H15.594V137.327H25.3074C27.4998 137.327 29.1532 136.968 30.2674 136.249V136.247Z" fill="#007767"/>
<path d="M60.8966 139.945C58.0349 137.102 56.606 133.043 56.606 127.767V107.624H64.9307V127.458C64.9307 133.898 67.604 137.118 72.9487 137.118C75.552 137.118 77.54 136.339 78.9107 134.78C80.2815 133.221 80.9669 130.781 80.9669 127.458V107.624H89.1894V127.767C89.1894 133.043 87.7586 137.102 84.8988 139.945C82.0371 142.789 78.037 144.211 72.8986 144.211C67.7603 144.211 63.7583 142.791 60.8986 139.945H60.8966Z" fill="#007767"/>
<path d="M111.262 143.053C108.607 142.282 106.475 141.28 104.863 140.047L107.689 133.778C109.23 134.908 111.064 135.816 113.188 136.501C115.312 137.186 117.437 137.529 119.561 137.529C121.926 137.529 123.673 137.178 124.803 136.475C125.934 135.774 126.499 134.84 126.499 133.674C126.499 132.818 126.164 132.107 125.497 131.542C124.829 130.977 123.972 130.524 122.928 130.179C121.881 129.837 120.469 129.46 118.687 129.049C115.946 128.398 113.701 127.747 111.954 127.096C110.206 126.445 108.707 125.401 107.457 123.962C106.206 122.523 105.581 120.606 105.581 118.207C105.581 116.118 106.146 114.226 107.276 112.529C108.406 110.834 110.112 109.49 112.39 108.496C114.669 107.502 117.453 107.005 120.741 107.005C123.036 107.005 125.28 107.28 127.473 107.827C129.665 108.376 131.585 109.163 133.228 110.191L130.659 116.51C127.336 114.627 124.012 113.685 120.689 113.685C118.358 113.685 116.637 114.062 115.525 114.815C114.411 115.569 113.855 116.563 113.855 117.797C113.855 119.031 114.499 119.947 115.783 120.546C117.068 121.145 119.03 121.736 121.667 122.319C124.409 122.97 126.653 123.621 128.399 124.273C130.146 124.924 131.645 125.952 132.896 127.356C134.146 128.761 134.771 130.662 134.771 133.061C134.771 135.116 134.196 136.992 133.05 138.687C131.902 140.382 130.18 141.727 127.886 142.72C125.589 143.714 122.797 144.211 119.509 144.211C116.665 144.211 113.916 143.826 111.26 143.055L111.262 143.053Z" fill="#007767"/>
<path d="M150.757 107.624H159.082V143.592H150.757V107.624Z" fill="#007767"/>
<path d="M210.886 107.624V143.592H204.05L186.114 121.754V143.592H177.892V107.624H184.777L202.663 129.462V107.624H210.886Z" fill="#007767"/>
<path d="M257.552 136.914V143.594H229.696V107.626H256.882V114.306H237.97V122.117H254.674V128.591H237.97V136.914H257.552Z" fill="#007767"/>
<path d="M278.031 143.053C275.376 142.282 273.244 141.28 271.632 140.047L274.458 133.778C275.999 134.908 277.833 135.816 279.957 136.501C282.081 137.186 284.206 137.529 286.33 137.529C288.695 137.529 290.442 137.178 291.572 136.475C292.703 135.774 293.268 134.84 293.268 133.674C293.268 132.818 292.933 132.107 292.266 131.542C291.598 130.977 290.741 130.524 289.697 130.179C288.65 129.837 287.238 129.46 285.456 129.049C282.715 128.398 280.47 127.747 278.723 127.096C276.975 126.445 275.476 125.401 274.226 123.962C272.975 122.523 272.35 120.606 272.35 118.207C272.35 116.118 272.915 114.226 274.045 112.529C275.175 110.834 276.881 109.49 279.159 108.496C281.438 107.502 284.222 107.005 287.51 107.005C289.805 107.005 292.049 107.28 294.242 107.827C296.434 108.376 298.354 109.163 299.997 110.191L297.428 116.51C294.105 114.627 290.781 113.685 287.458 113.685C285.127 113.685 283.406 114.062 282.294 114.815C281.179 115.569 280.624 116.563 280.624 117.797C280.624 119.031 281.268 119.947 282.552 120.546C283.837 121.145 285.799 121.736 288.436 122.319C291.178 122.97 293.422 123.621 295.168 124.273C296.915 124.924 298.414 125.952 299.665 127.356C300.915 128.761 301.54 130.662 301.54 133.061C301.54 135.116 300.965 136.992 299.819 138.687C298.671 140.382 296.949 141.727 294.655 142.72C292.358 143.714 289.566 144.211 286.278 144.211C283.434 144.211 280.684 143.826 278.029 143.055L278.031 143.053Z" fill="#007767"/>
<path d="M321.098 143.053C318.442 142.282 316.31 141.28 314.699 140.047L317.524 133.778C319.066 134.908 320.899 135.816 323.023 136.501C325.148 137.186 327.272 137.529 329.396 137.529C331.761 137.529 333.509 137.178 334.639 136.475C335.769 135.774 336.334 134.84 336.334 133.674C336.334 132.818 336 132.107 335.332 131.542C334.665 130.977 333.807 130.524 332.763 130.179C331.717 129.837 330.304 129.46 328.522 129.049C325.781 128.398 323.536 127.747 321.789 127.096C320.041 126.445 318.542 125.401 317.292 123.962C316.041 122.523 315.416 120.606 315.416 118.207C315.416 116.118 315.981 114.226 317.112 112.529C318.242 110.834 319.947 109.49 322.226 108.496C324.504 107.502 327.288 107.005 330.577 107.005C332.871 107.005 335.116 107.28 337.308 107.827C339.501 108.376 341.42 109.163 343.064 110.191L340.494 116.51C337.172 114.627 333.847 113.685 330.524 113.685C328.194 113.685 326.472 114.062 325.36 114.815C324.246 115.569 323.691 116.563 323.691 117.797C323.691 119.031 324.334 119.947 325.619 120.546C326.903 121.145 328.865 121.736 331.503 122.319C334.244 122.97 336.488 123.621 338.234 124.273C339.982 124.924 341.481 125.952 342.731 127.356C343.982 128.761 344.607 130.662 344.607 133.061C344.607 135.116 344.032 136.992 342.885 138.687C341.737 140.382 340.016 141.727 337.721 142.72C335.424 143.714 332.633 144.211 329.344 144.211C326.5 144.211 323.751 143.826 321.096 143.055L321.098 143.053Z" fill="#007767"/>
</svg>
