<svg width="381" height="99" viewBox="0 0 381 99" fill="none" xmlns="http://www.w3.org/2000/svg">
<path d="M10.1239 17.9889C13.5532 18.1179 16.77 19.4974 19.0798 22.7019C21.5029 26.0638 22.9321 29.8512 23.922 33.8282C25.2257 39.0677 26.7946 44.2143 29.2461 49.0504C30.1692 50.8695 31.1936 52.6281 32.5762 54.1528C37.1513 59.2027 44.3034 58.2689 47.3845 52.1764C49.0283 48.9254 50.0648 45.4425 51.1255 41.9677C53.6459 33.7193 55.82 25.3479 59.7757 17.6016C63.0167 11.257 67.1424 5.72917 73.59 2.25234C76.5719 0.645006 79.7157 -0.224212 83.1247 0.0500626C83.8353 0.106531 84.5601 0.189231 85.2383 0.392921C87.2545 0.999955 88.3456 3.03684 87.8213 5.09793C87.4347 6.62258 85.7949 7.59665 83.7908 7.00979C79.7906 5.83605 76.8067 7.54624 74.0272 10.0127C71.9441 11.862 70.4644 14.1893 69.0149 16.5408C65.3994 22.4014 64.0005 29.0607 62.0308 35.5162C60.3789 40.9311 58.802 46.3722 57.0286 51.7468C55.4294 56.593 52.4737 60.5095 48.1821 63.3571C42.1899 67.3361 35.7829 67.1788 30.0235 62.867C26.0456 59.8883 23.1609 56.0303 21.345 51.4282C18.9441 45.3397 16.9015 39.1241 14.9845 32.8682C14.4014 30.9685 13.7719 29.097 12.7495 27.3828C11.7677 25.7351 10.634 25.4467 9.03679 26.5055C8.16833 27.0802 7.40922 27.8184 6.58935 28.4718C4.77349 29.9178 2.61756 30.1578 1.25314 29.0748C0.0466108 28.1168 -0.378523 25.5011 0.376568 23.6942C1.81994 20.2435 5.47599 18.005 10.1219 17.9909L10.1239 17.9889Z" fill="#C72040"/>
<path d="M155.247 67.2352C150.991 67.2574 147.744 65.2931 145.151 62.0946C141.896 58.0793 140.137 53.3279 138.596 48.4938C136.675 42.4699 135.177 36.3188 133.049 30.3574C132.302 28.264 131.808 28.0886 129.999 29.3369C128.272 30.5288 127.08 32.1664 126.106 33.9794C122.32 41.0259 120.075 48.6027 118.387 56.3651C117.885 58.6742 117.452 60.9995 116.992 63.3188C116.409 66.2612 114.605 67.7495 111.978 67.449C109.032 67.1102 106.463 64.5812 106.945 61.9051C109.091 49.9781 111.455 38.0774 118.415 27.7639C121.073 23.8232 124.405 20.546 129.203 19.2089C134.41 17.7589 138.612 19.4933 141.266 24.1782C143.321 27.8062 144.266 31.8478 145.603 35.7441C147.811 42.1835 149.398 48.8629 152.921 54.8001C153.51 55.7923 154.111 56.7866 154.799 57.7123C156.115 59.483 156.988 59.7734 159.081 59.0534C160.273 58.642 161.427 58.0874 162.545 57.4944C163.69 56.8874 164.168 57.1194 164.146 58.4383C164.067 63.2139 160.016 67.2352 155.249 67.2393L155.247 67.2352Z" fill="#C72040"/>
<path d="M304.275 82.1187C300.528 83.004 297.052 84.1576 293.795 85.9323C292.872 86.4344 292.572 87.3036 292.416 88.2515C291.993 90.8067 291.829 93.3821 291.817 95.9695C291.813 97.0162 291.967 98.2545 290.536 98.44C289.117 98.6235 287.914 98.0306 287.299 96.6653C286.77 95.4936 286.738 94.215 286.702 92.9444C286.521 86.7007 287.436 80.5537 288.333 74.4047C288.706 71.8455 290.22 70.4176 292.765 70.2724C293.831 70.2119 294.39 70.5547 294.378 71.7628C294.346 74.4813 293.72 77.1051 293.22 79.745C293.007 80.8703 293.074 81.2999 294.376 80.836C297.439 79.745 300.526 78.7245 303.621 77.7303C304.779 77.3572 305.382 76.7098 305.704 75.4877C306.546 72.2972 307.609 69.1672 309.239 66.2692C310.322 64.3432 311.425 64.0428 313.31 65.0773C315.021 66.0151 315.523 67.5317 314.595 69.2318C311.095 75.643 310.006 82.5845 309.968 89.7661C309.96 91.1657 310.506 92.4524 310.818 93.7895C310.99 94.5296 311.421 95.4512 310.818 95.9837C310.101 96.6149 309.257 95.8969 308.551 95.5621C305.518 94.1222 304.423 91.4521 304.083 88.3463C303.862 86.3235 304.17 84.3048 304.277 82.1227L304.275 82.1187Z" fill="#E86629"/>
<path d="M283.689 81.5883C284.414 82.5564 284.596 83.4578 284.303 84.4803C282.718 90.0102 274.365 96.2318 268.557 96.2035C263.057 96.1773 259.419 91.9805 260.693 86.6987C262.296 80.0516 265.646 74.3906 271.333 70.3108C273.167 68.9939 275.195 68.2134 277.493 68.2436C278.612 68.2578 279.554 68.649 280.189 69.5848C281.078 70.8936 280.774 71.7023 279.274 72.1521C272.26 74.2535 266.249 81.8989 265.871 89.2055C265.855 89.5342 265.849 89.865 265.867 90.1937C265.978 92.1842 266.33 92.5311 268.278 92.275C272.681 91.6962 276.179 89.3689 279.349 86.4466C280.924 84.9946 282.278 83.3388 283.689 81.5883Z" fill="#E86629"/>
<path d="M239.303 60.1203C242.376 53.0799 245.421 46.0254 248.542 39.0072C249.516 36.8211 251.879 36.1072 253.786 37.2386C255.814 38.4425 256.29 40.8122 254.676 42.7604C249.735 48.7278 244.708 54.6247 239.716 60.5499C239.368 60.6084 239.17 60.5237 239.303 60.1203Z" fill="#F6B21C"/>
<path d="M239.329 65.999C245.657 60.6284 251.846 55.3305 258.097 50.1031C259.856 48.633 262.198 49.0787 263.439 50.9078C264.591 52.6059 264.128 55.1248 262.156 56.0384C254.712 59.4849 247.2 62.7783 239.71 66.124C239.673 66.1401 239.608 66.0938 239.329 65.999Z" fill="#E86629"/>
<path d="M93.2989 2.08897C95.2707 2.0688 96.7525 3.43413 96.7566 5.27338C96.7586 6.98962 95.3537 8.42553 93.6391 8.45578C91.7321 8.49007 89.487 6.45115 89.4971 4.6966C89.5052 3.23044 91.1389 2.11115 93.2989 2.08897Z" fill="#C72441"/>
<path d="M239.303 60.1202C239.441 60.2633 239.578 60.4064 239.716 60.5495C239.562 60.9505 239.329 61.281 238.827 61.4805C238.71 60.9002 238.997 60.5092 239.303 60.1223V60.1202Z" fill="#F8C158"/>
<path d="M192.242 15.234C189.69 14.2156 187.026 13.79 184.295 13.9856C175.88 14.5866 168.428 17.6682 161.994 23.0529C158.763 25.7573 156.565 29.2543 155.395 33.3361C153.13 41.2397 157.259 48.8932 165.12 51.3596C168.298 52.3579 171.521 52.4265 174.778 51.7972C178.139 51.1499 181.106 49.6575 184.101 47.3C183.718 51.047 183.481 54.4251 183.009 57.7708C182.038 64.666 180.485 71.3958 176.778 77.444C174.402 81.3221 171.26 84.4198 167.379 86.8016C160.336 91.1234 153.421 90.3207 146.554 86.368C142.815 84.2161 139.414 81.5803 135.918 79.0755C133.1 77.0567 130.064 75.5744 126.55 75.1973C121.027 74.6024 115.381 78.3777 114.327 83.4155C113.741 86.2127 115.209 88.5904 117.985 89.3366C120.288 89.9557 122.074 88.9252 122.645 86.6422C123.353 83.8168 124.426 83.242 127.153 84.3028C129.756 85.3152 131.953 86.9952 134.131 88.6872C136.965 90.8874 139.872 92.9707 143.016 94.7213C149.073 98.0932 155.508 99.4948 162.326 97.9601C173.784 95.3827 181.451 88.1306 186.4 77.811C189.633 71.0711 190.919 63.8048 191.617 56.4438C192.378 48.395 192.913 40.3261 193.668 32.2774C194.052 28.1753 194.753 24.1056 195.218 20.0096C195.534 17.2245 194.882 16.2908 192.242 15.236V15.234ZM185.9 24.396C184.949 28.6392 183.89 32.8461 181.584 36.6133C179.038 40.7698 175.509 43.3593 171.098 43.5186C164.464 43.4742 161.739 38.7753 164.685 33.5681C165.786 31.624 167.199 29.9117 169.029 28.6573C173.63 25.5052 178.661 23.3372 184.244 22.6354C186.309 22.3752 186.335 22.4519 185.9 24.396Z" fill="#C72040"/>
<path d="M90.1692 14.4071C85.8431 13.6145 81.7356 14.0824 77.6565 15.5505C75.3366 16.3855 73.9337 18.255 74.0106 20.6448C74.1401 24.6177 76.95 26.4509 80.6506 25.0251C81.7255 24.6097 82.841 24.2386 83.9726 24.041C87.9606 23.3432 91.4203 24.17 93.9386 27.6287C94.6977 28.6714 94.9184 29.1675 93.3232 29.6858C85.9241 32.0857 78.6444 34.8062 71.7818 38.513C68.7432 40.1546 66.065 42.256 64.0791 45.1339C58.3947 53.3722 61.3401 63.0868 70.7068 66.5939C77.7132 69.2177 84.6224 68.8647 91.0639 64.9059C101.712 58.3636 106.85 48.6733 106.986 37.6236C107.516 25.3256 99.5015 16.1173 90.1692 14.4091V14.4071ZM97.7403 41.0762C96.1694 48.5664 92.1146 54.3644 85.6022 58.4322C84.9058 58.8678 84.1507 59.2328 83.3855 59.5353C79.8388 60.939 75.9257 59.8701 73.5774 56.8914C71.2292 53.9107 71.1259 49.8752 73.3102 46.7513C74.373 45.2307 75.782 44.0691 77.361 43.1535C82.9543 39.9186 89.1408 38.6098 94.6491 37.7729C97.7565 37.7204 98.297 38.4263 97.7403 41.0762Z" fill="#C72040"/>
<path d="M238.119 37.5713C237.93 29.2059 234.108 22.5386 227.163 17.888C221.094 13.8243 214.788 13.9917 208.678 17.9788C204.032 21.0119 200.992 25.3338 199.152 30.5107C194.417 43.8312 203.763 57.0044 218.262 57.0448C218.679 57.0226 219.397 56.9984 220.112 56.9459C230.147 56.2078 238.341 47.5783 238.117 37.5733L238.119 37.5713ZM226.626 42.0383C224.889 45.1743 221.731 47.068 218.262 47.0499C213.083 47.0257 208.808 42.7905 208.668 37.2304C208.557 32.8158 210.269 29.0566 213.832 26.328C216.274 24.4585 218.994 24.2024 221.756 25.6605C227.181 28.5282 229.59 36.6859 226.626 42.0363V42.0383Z" fill="#C72040"/>
<path d="M235.76 82.6572C234.616 81.8948 234.534 80.9712 234.469 79.9144C234.299 77.0608 234.173 74.2051 234.029 71.3494C234.042 71.3494 234.054 71.3494 234.066 71.3494C234.066 69.974 234.06 68.6006 234.066 67.2252C234.074 65.6864 233.456 65.0391 231.924 64.9281C229.396 64.7446 227.78 66.0857 226.521 68.0662C221.646 75.7358 217.199 83.6413 213.397 91.8958C213.124 92.4907 212.895 93.1199 212.759 93.7592C212.439 95.2637 213.089 96.0886 214.595 96.2015C216.717 96.3588 217.642 95.7256 218.586 93.5132C218.962 92.6299 219.114 91.6276 220.302 91.2807C222.733 90.5708 225.138 89.7661 227.545 88.9776C228.454 88.6811 228.669 88.901 228.57 89.8791C228.355 92.0087 228.213 94.1586 228.647 96.2842C228.809 97.0788 228.894 98.0145 229.92 98.196C231.068 98.3977 232.122 98.1597 232.867 97.1514C233.337 96.5181 233.584 95.7901 233.734 95.0298C234.141 92.9748 234.309 90.8935 234.4 88.8062C234.45 87.6365 234.531 86.6039 235.491 85.6702C236.311 84.8715 236.993 83.484 235.752 82.6592L235.76 82.6572ZM229.051 76.0423C229.039 78.3454 228.997 80.6465 228.991 82.9496C228.991 83.5486 228.883 84.0447 228.264 84.2746C226.07 85.0914 223.873 85.9041 221.677 86.7168C223.511 82.7721 225.389 79.017 227.985 75.6854C228.193 75.4171 228.365 74.9129 228.851 75.1449C229.205 75.3143 229.056 75.7338 229.054 76.0403L229.051 76.0423Z" fill="#E86629"/>
<path d="M335.542 82.1893C335.082 81.8485 335.118 81.4653 335.09 81.0519C334.914 78.4765 334.752 75.9012 334.533 72.4989C334.533 71.2909 334.527 69.2581 334.536 67.2252C334.542 65.6784 333.938 65.0391 332.402 64.9262C329.792 64.7366 328.201 66.1785 326.916 68.2033C322.106 75.7802 317.713 83.5829 313.956 91.7345C313.638 92.4262 313.352 93.1623 313.227 93.9065C312.982 95.3605 313.62 96.0886 315.077 96.1995C317.211 96.3608 318.219 95.6732 319.138 93.364C319.482 92.4968 319.687 91.6074 320.782 91.2807C323.209 90.5587 325.614 89.7661 328.023 88.9837C328.948 88.6832 329.169 88.9655 329.06 89.9114C328.813 92.041 328.691 94.1828 329.134 96.3084C329.302 97.1111 329.398 98.0267 330.426 98.1981C331.442 98.3695 332.42 98.2041 333.157 97.3833C333.724 96.7521 334.013 95.9817 334.183 95.1629C334.618 93.0574 334.809 90.9258 334.876 88.782C334.912 87.6103 335.072 86.6019 335.991 85.6581C337.268 84.3452 337.068 83.3146 335.54 82.1853L335.542 82.1893ZM328.738 84.2786C326.564 85.1842 324.365 86.011 321.792 86.7048C324.157 82.4979 326.134 78.414 329.456 75.0824C329.456 77.7626 329.446 80.4428 329.464 83.1231C329.468 83.6958 329.254 84.0629 328.738 84.2786Z" fill="#E86629"/>
<path d="M212.393 64.543C208.662 64.5853 205.634 66.3157 202.905 68.6793C201.71 69.7139 200.818 71.1719 198.755 70.6113C197.864 70.3693 197.026 71.18 196.51 72.0351C196.02 72.8479 195.744 73.7312 195.583 74.6609C194.512 80.8442 194.366 87.1222 193.633 93.1159C193.558 94.1485 193.257 95.0278 194.038 95.651C195.105 96.502 196.384 96.6089 197.656 96.3488C198.826 96.1088 199.071 95.0601 199.259 94.0759C199.435 93.1603 199.562 92.2306 199.647 91.3009C199.773 89.9255 200.423 89.0401 201.68 88.3585C206.364 85.8154 210.508 82.5362 214.205 78.7125C215.932 76.9257 217.504 74.9957 218.292 72.5796C219.529 68.7841 216.403 64.4966 212.397 64.543H212.393ZM212.439 72.5353C210.194 76.4114 207.101 79.4889 203.32 81.8787C202.548 82.3668 201.727 82.8306 200.455 82.7923C202.212 77.2705 205.107 72.9104 210.229 70.3027C211.18 69.8187 212.52 69.1109 213.274 69.8853C213.852 70.4802 212.921 71.7003 212.439 72.5353Z" fill="#E86629"/>
<path d="M358.65 73.6142C357.884 68.9052 354.38 65.8075 349.72 65.8014C347.819 65.6603 346.052 66.3359 344.485 67.5762C343.23 68.5684 342.062 69.6574 341.028 70.8836C339.695 72.4606 339.481 73.6788 340.6 75.3668C341.232 76.3187 341.198 77.1132 340.93 78.1256C339.501 83.5426 338.031 88.9514 337.361 94.5337C337.155 96.26 337.58 96.8106 339.333 97.0103C341.641 97.2724 343.714 96.5908 345.609 95.3686C351.708 91.428 355.84 85.9324 358.287 79.1562C358.935 77.3653 358.955 75.4837 358.652 73.6142H358.65ZM353.603 76.8672C352.374 83.3006 348.325 87.7857 343.268 91.5026C343.111 91.4259 342.953 91.3513 342.793 91.2747C344.208 85.4141 345.582 79.5454 347.06 73.7009C347.473 72.0694 348.813 71.0328 350.222 70.2584C351.309 69.6594 352.257 70.095 352.807 71.2325C353.674 73.0253 353.963 74.9816 353.605 76.8652L353.603 76.8672Z" fill="#E86629"/>
<path d="M378.895 73.102C377.97 71.0772 376.655 69.3186 374.337 68.8951C371.753 68.4232 369.166 68.6188 366.713 69.7179C366.002 70.0366 365.296 70.5528 365.606 71.3151C366.239 72.8781 365.332 73.6969 364.443 74.7033C362.308 77.1173 360.706 79.8762 359.569 82.8912C358.749 85.0672 358.164 87.2937 358.277 89.6492C358.445 93.122 361.152 96.1431 364.545 96.5323C368.059 96.9356 371.233 96.1209 373.901 93.6968C378.181 89.8085 379.812 84.8191 380.011 79.2288C380.033 77.1072 379.782 75.04 378.897 73.0999L378.895 73.102ZM370.383 89.9517C369.014 91.2485 367.395 92.0048 365.514 92.1782C363.798 92.3375 363.172 91.8051 363.166 90.0566C363.162 89.1874 363.255 88.2839 363.496 87.451C364.786 82.99 367.049 79.0634 370.274 75.7076C370.802 75.157 371.436 74.6952 372.059 74.2455C373.017 73.5537 373.697 73.592 374.12 74.9029C374.565 76.2844 374.725 77.688 374.855 78.9707C374.679 83.2602 373.496 87.0012 370.385 89.9517H370.383Z" fill="#E86629"/>
<path d="M258.777 89.4515C258.621 88.179 257.718 88.2637 256.789 88.3968C256.412 88.4513 256.018 88.542 255.653 88.4855C251.783 87.8704 247.961 87.0476 243.754 85.7186C247.475 84.0568 250.443 81.9937 253.177 79.5998C254.922 78.0712 256.631 76.49 257.783 74.4431C259.19 71.9464 258.204 69.2823 255.538 68.2295C253.439 67.4007 251.517 67.9996 249.691 69.0402C247.284 70.4116 245.55 72.4747 244.003 74.7133C243.63 75.2538 243.333 75.7842 242.485 75.7519C241.102 75.6995 240.363 76.605 240.078 77.8292C239.043 82.272 237.859 86.6907 237.436 91.2485C237.294 92.7671 237.134 94.33 237.677 95.8284C238.035 96.8146 238.815 97.0929 239.788 97.0425C240.802 96.9901 240.979 96.3367 241.1 95.4836C241.331 93.8541 241.738 92.2507 241.971 90.6212C242.124 89.5403 242.608 89.4213 243.547 89.7157C245.863 90.4397 248.21 91.075 250.617 91.4179C252.799 91.7304 254.991 92.0471 257.2 91.5711C258.362 91.3211 258.925 90.6475 258.779 89.4576L258.777 89.4515ZM251.858 72.5595C252.605 72.1218 253.696 71.4987 254.256 72.1319C254.795 72.741 253.848 73.592 253.35 74.2011C250.843 77.2564 247.787 79.6482 244.232 81.429C245.904 77.696 248.321 74.6367 251.858 72.5595Z" fill="#E86629"/>
</svg>
